<?xml version="1.0" encoding="UTF-8" standalone="no"?>
<!-- Created with Inkscape (http://www.inkscape.org/) -->

<svg
   xmlns:dc="http://purl.org/dc/elements/1.1/"
   xmlns:cc="http://creativecommons.org/ns#"
   xmlns:rdf="http://www.w3.org/1999/02/22-rdf-syntax-ns#"
   xmlns:svg="http://www.w3.org/2000/svg"
   xmlns="http://www.w3.org/2000/svg"
   xmlns:xlink="http://www.w3.org/1999/xlink"
   xmlns:sodipodi="http://sodipodi.sourceforge.net/DTD/sodipodi-0.dtd"
   xmlns:inkscape="http://www.inkscape.org/namespaces/inkscape"
   width="744.09448819"
   height="1052.3622047"
   id="svg9263"
   version="1.1"
   inkscape:version="0.47pre4 r22446"
   sodipodi:docname="sujimichi-v2.svg">
  <defs
     id="defs9265">
    <inkscape:perspective
       sodipodi:type="inkscape:persp3d"
       inkscape:vp_x="0 : 526.18109 : 1"
       inkscape:vp_y="0 : 1000 : 0"
       inkscape:vp_z="744.09448 : 526.18109 : 1"
       inkscape:persp3d-origin="372.04724 : 350.78739 : 1"
       id="perspective9271" />
  </defs>
  <sodipodi:namedview
     id="base"
     pagecolor="#ffffff"
     bordercolor="#666666"
     borderopacity="1.0"
     inkscape:pageopacity="0.0"
     inkscape:pageshadow="2"
     inkscape:zoom="5.6"
     inkscape:cx="157.91314"
     inkscape:cy="920"
     inkscape:document-units="px"
     inkscape:current-layer="layer1"
     showgrid="false"
     inkscape:window-width="1360"
     inkscape:window-height="716"
     inkscape:window-x="0"
     inkscape:window-y="27"
     inkscape:window-maximized="1" />
  <metadata
     id="metadata9268">
    <rdf:RDF>
      <cc:Work
         rdf:about="">
        <dc:format>image/svg+xml</dc:format>
        <dc:type
           rdf:resource="http://purl.org/dc/dcmitype/StillImage" />
        <dc:title></dc:title>
      </cc:Work>
    </rdf:RDF>
  </metadata>
  <g
     inkscape:groupmode="layer"
     id="layer3"
     inkscape:label="background"
     style="display:inline">
    <rect
       style="fill:#aa0000;stroke:#000000;display:inline;stroke-opacity:1"
       id="rect2828"
       width="69.464287"
       height="12.857142"
       x="104.28571"
       y="111.82646"
       ry="6.4285712"
       rx="3.3928571"
       inkscape:export-filename="/home/arekt/git/linguist/public/images/sujimichi.png"
       inkscape:export-xdpi="416.93457"
       inkscape:export-ydpi="416.93457" />
  </g>
  <g
     inkscape:label="Layer 1"
     inkscape:groupmode="layer"
     id="layer1"
     style="display:inline">
    <path
       sodipodi:type="inkscape:offset"
       inkscape:radius="1.3477243"
       inkscape:original="M 122.3125 104.1875 L 120.125 104.5 L 120.75 108.84375 C 120.80644 109.23686 120.71613 109.53437 120.53125 109.78125 C 120.34912 110.02445 120.09574 110.19587 119.71875 110.25 C 119.33853 110.3046 119.02813 110.21614 118.78125 110.03125 C 118.53712 109.84268 118.36802 109.57416 118.3125 109.1875 L 117.6875 104.84375 L 115.5 105.15625 L 116.125 109.40625 C 116.17497 109.75425 116.2999 110.13083 116.5 110.5625 C 116.62403 110.8308 116.79901 111.08067 117.0625 111.3125 C 117.32921 111.54387 117.61154 111.70683 117.90625 111.8125 C 118.20049 111.91495 118.55581 111.97871 118.96875 111.96875 C 119.3849 111.95832 119.78022 111.92451 120.125 111.875 C 120.72109 111.78941 121.22234 111.62521 121.625 111.40625 C 121.91491 111.24952 122.16893 111.0044 122.40625 110.6875 C 122.64632 110.36692 122.79931 110.01406 122.875 109.625 C 122.95343 109.23226 122.96639 108.82513 122.90625 108.40625 L 122.3125 104.1875 z M 132.8125 105.5625 L 130.625 105.875 L 131.625 112.96875 L 133.8125 112.65625 L 132.8125 105.5625 z M 146.375 105.90625 L 146.375 113.0625 L 148.59375 113.0625 L 148.59375 105.90625 L 146.375 105.90625 z M 128.40625 106.25 L 126.25 106.71875 L 127.1875 111.03125 C 127.2801 111.45751 127.29387 111.76256 127.21875 111.96875 C 127.14611 112.17108 126.99175 112.32248 126.75 112.375 C 126.59731 112.40817 126.47083 112.38622 126.375 112.34375 C 126.23408 112.27776 126.11462 112.1697 126.03125 112.03125 C 125.94787 111.8928 125.85146 111.68287 125.78125 111.375 L 123.78125 112.09375 C 123.9369 112.62623 124.17864 113.08286 124.46875 113.40625 C 124.76135 113.72577 125.1017 113.9247 125.53125 114.03125 C 125.96079 114.1378 126.54381 114.12217 127.25 113.96875 C 127.91801 113.82363 128.41788 113.53832 128.78125 113.15625 C 129.14779 112.77349 129.35681 112.38462 129.40625 111.9375 C 129.45886 111.48969 129.42345 110.86094 129.25 110.0625 L 128.40625 106.25 z M 168.59375 106.96875 L 167.09375 113.96875 L 169.25 114.4375 L 170.78125 107.4375 L 168.59375 106.96875 z M 112.21875 107.21875 C 111.4733 107.21876 110.89844 107.31121 110.46875 107.5 C 110.04232 107.68555 109.71484 107.95248 109.5 108.28125 C 109.28841 108.60678 109.1875 108.94467 109.1875 109.3125 C 109.1875 109.8724 109.39583 110.32618 109.8125 110.6875 C 110.22591 111.04883 110.90495 111.3444 111.875 111.5625 C 112.46744 111.69271 112.86849 111.85352 113.03125 112 C 113.19401 112.14649 113.25 112.28321 113.25 112.46875 C 113.25 112.66406 113.17252 112.85026 113 113 C 112.83072 113.14649 112.597 113.21875 112.28125 113.21875 C 111.85807 113.21875 111.54036 113.07096 111.3125 112.78125 C 111.17252 112.60222 111.07682 112.3418 111.03125 112 L 108.90625 112.125 C 108.9681 112.84766 109.25 113.46875 109.71875 113.9375 C 110.1875 114.40625 111.03255 114.625 112.25 114.625 C 112.94336 114.625 113.51302 114.54232 113.96875 114.34375 C 114.42447 114.14193 114.77734 113.82487 115.03125 113.4375 C 115.28515 113.05013 115.40624 112.64649 115.40625 112.1875 C 115.40624 111.79688 115.31705 111.44076 115.125 111.125 C 114.93619 110.80925 114.63867 110.52409 114.21875 110.3125 C 113.80208 110.09766 113.09179 109.89584 112.125 109.6875 C 111.73437 109.60612 111.51041 109.53191 111.40625 109.4375 C 111.29883 109.34636 111.21875 109.23894 111.21875 109.125 C 111.21875 108.96876 111.30729 108.82618 111.4375 108.71875 C 111.56771 108.60808 111.74284 108.56251 112 108.5625 C 112.3125 108.56251 112.57421 108.63477 112.75 108.78125 C 112.92903 108.92774 113.03841 109.14649 113.09375 109.46875 L 115.1875 109.34375 C 115.09635 108.60157 114.79426 108.08855 114.3125 107.75 C 113.83398 107.40821 113.13346 107.21876 112.21875 107.21875 z M 135.40625 107.34375 L 135.40625 114.5 L 137.21875 114.5 L 137.21875 109.03125 L 138.625 114.5 L 140.25 114.5 L 141.65625 109.03125 L 141.65625 114.5 L 143.46875 114.5 L 143.46875 107.34375 L 140.5625 107.34375 L 139.4375 111.6875 L 138.3125 107.34375 L 135.40625 107.34375 z M 154.53125 107.875 C 153.3906 107.71122 152.46578 107.89572 151.75 108.4375 C 151.0379 108.97653 150.60591 109.82714 150.4375 111 C 150.31119 111.87965 150.38278 112.63523 150.65625 113.25 C 150.92972 113.86477 151.29584 114.32959 151.75 114.625 C 152.20784 114.91765 152.82365 115.10817 153.59375 115.21875 C 154.22851 115.3099 154.75191 115.3124 155.1875 115.1875 C 155.6263 115.06306 156.01482 114.82109 156.34375 114.5 C 156.67267 114.17891 156.95009 113.76959 157.15625 113.25 L 155.3125 112.40625 C 155.15152 112.84025 154.93715 113.13953 154.6875 113.34375 C 154.44106 113.54843 154.10638 113.62265 153.6875 113.5625 C 153.25573 113.5005 152.9468 113.32423 152.75 113 C 152.55366 112.67255 152.51211 112.09871 152.625 111.3125 C 152.71614 110.67774 152.88266 110.23651 153.125 109.96875 C 153.44658 109.60715 153.84753 109.46 154.34375 109.53125 C 154.56285 109.56272 154.77323 109.63434 154.9375 109.75 C 155.10176 109.86567 155.21411 110.00237 155.3125 110.1875 C 155.37226 110.29803 155.43208 110.4619 155.46875 110.6875 L 157.46875 110.5625 C 157.32798 109.77934 157.023 109.1532 156.5625 108.71875 C 156.10521 108.28477 155.42378 108.00317 154.53125 107.875 z M 158.96875 108.25 L 157.96875 115.3125 L 160.15625 115.625 L 160.5625 112.78125 L 162.96875 113.125 L 162.53125 115.96875 L 164.75 116.3125 L 165.75 109.21875 L 163.5625 108.90625 L 163.21875 111.375 L 160.8125 111.03125 L 161.15625 108.5625 L 158.96875 108.25 z "
       xlink:href="#text9273"
       style="font-size:10px;font-style:normal;font-variant:normal;font-weight:bold;font-stretch:normal;fill:#000000;fill-opacity:1;stroke:none;font-family:Arial Black;-inkscape-font-specification:'Arial Black, Bold'"
       id="path9286"
       inkscape:href="#text9273"
       d="m 111.40625,126.78125 -2.1875,0.3125 a 1.3478591,1.3478591 0 0 0 -1.09375,0.96875 1.3478591,1.3478591 0 0 0 -1.34375,-0.625 l -2.1875,0.3125 a 1.3478591,1.3478591 0 0 0 -1.15625,1.53125 l 0.125,0.9375 c -0.63891,-0.24947 -1.31367,-0.40624 -2.0625,-0.40625 -0.85687,1e-5 -1.594625,0.10457 -2.28125,0.40625 l 0,-0.0312 c -0.62858,0.27351 -1.187331,0.70714 -1.5625,1.28125 -0.337118,0.51866 -0.531252,1.16692 -0.53125,1.78125 -10e-7,0.564 0.20859,1.10138 0.5,1.59375 a 1.3478591,1.3478591 0 0 0 -0.75,1.34375 c 0.08292,0.96882 0.488887,1.89514 1.1875,2.59375 0.872003,0.87201 2.0668,1.125 3.46875,1.125 0.84099,0 1.59029,-0.1188 2.25,-0.40625 a 1.3478591,1.3478591 0 0 0 0,-0.0312 c 0.65095,-0.28828 1.25512,-0.73178 1.65625,-1.34375 0.31378,-0.47873 0.40235,-1.0457 0.46875,-1.59375 0.27205,0.18163 0.51692,0.39402 0.8125,0.5 a 1.3478591,1.3478591 0 0 0 0.0312,0 c 0.52882,0.18413 1.029,0.19961 1.53125,0.1875 0.4003,-0.01 0.83072,0.007 1.3125,-0.0625 0.73091,-0.10495 1.40213,-0.31688 1.96875,-0.625 0.077,-0.0417 0.11601,-0.10969 0.1875,-0.15625 a 1.3478591,1.3478591 0 0 0 0.0312,0.0312 c 0.20685,0.70765 0.53486,1.32884 0.96875,1.8125 0.4587,0.50091 1.08777,0.89048 1.78125,1.0625 0.78097,0.19372 1.4884,0.0785 2.28125,-0.0937 0.84207,-0.18293 1.64029,-0.51516 2.25,-1.15625 0.25527,-0.26657 0.33149,-0.64013 0.5,-0.96875 a 1.3478591,1.3478591 0 0 0 1.53125,1.15625 l 2.21875,-0.3125 a 1.3478591,1.3478591 0 0 0 0.0312,0 l 0,0.53125 a 1.3478591,1.3478591 0 0 0 1.34375,1.34375 l 1.8125,0 a 1.3478591,1.3478591 0 0 0 0.71875,-0.1875 1.3478591,1.3478591 0 0 0 0.0312,0 1.3478591,1.3478591 0 0 0 0.65625,0.1875 l 1.625,0 a 1.3478591,1.3478591 0 0 0 0.71875,-0.1875 1.3478591,1.3478591 0 0 0 0.6875,0.1875 l 1.8125,0 a 1.3478591,1.3478591 0 0 0 1.34375,-1.34375 l 0,-7.15625 A 1.3478591,1.3478591 0 0 0 132.75,129.9375 l -2.90625,0 a 1.3478591,1.3478591 0 0 0 -1.125,0.59375 1.3478591,1.3478591 0 0 0 -1.125,-0.59375 l -2.90625,0 a 1.3478591,1.3478591 0 0 0 -1.09375,0.53125 l -0.15625,-1.15625 a 1.3478591,1.3478591 0 0 0 -1.53125,-1.15625 l -2.1875,0.3125 a 1.3478591,1.3478591 0 0 0 -1.0625,0.8125 1.3478591,1.3478591 0 0 0 -1.25,-0.40625 l -2.15625,0.46875 a 1.3478591,1.3478591 0 0 0 -1.03125,1.59375 l 0.65625,3.03125 a 1.3478591,1.3478591 0 0 0 -0.21875,0.0625 l -1.5,0.53125 c 0.10535,-0.2517 0.26114,-0.48602 0.3125,-0.75 0.10787,-0.54018 0.14397,-1.08881 0.0625,-1.65625 l -0.59375,-4.21875 a 1.3478591,1.3478591 0 0 0 -1.53125,-1.15625 z M 135.5625,128.5 a 1.3478591,1.3478591 0 0 0 -1.21875,1.34375 l 0,7.15625 a 1.3478591,1.3478591 0 0 0 1.34375,1.34375 l 2.1875,0 a 1.3478591,1.3478591 0 0 0 0.96875,-0.40625 c 0.34834,0.70437 0.78395,1.3249 1.4375,1.75 a 1.3478591,1.3478591 0 0 0 0.0312,0 c 0.69626,0.44505 1.48938,0.68533 2.375,0.8125 0.77741,0.11163 1.49837,0.0636 2.15625,-0.125 0.41921,-0.11889 0.77864,-0.39833 1.15625,-0.65625 a 1.3478591,1.3478591 0 0 0 1.0625,0.875 l 2.1875,0.3125 a 1.3478591,1.3478591 0 0 0 1.3125,-0.59375 1.3478591,1.3478591 0 0 0 1.09375,0.9375 l 2.1875,0.3125 a 1.3478591,1.3478591 0 0 0 1.53125,-1.15625 l 0.1875,-1.4375 a 1.3478591,1.3478591 0 0 0 0.53125,0.25 l 2.15625,0.46875 a 1.3478591,1.3478591 0 0 0 1.59375,-1.03125 l 1.53125,-7 a 1.3478591,1.3478591 0 0 0 -1.03125,-1.59375 l -2.1875,-0.46875 a 1.3478591,1.3478591 0 0 0 -1.59375,1.03125 l -0.375,1.8125 a 1.3478591,1.3478591 0 0 0 -0.9375,-0.625 l -2.1875,-0.34375 a 1.3478591,1.3478591 0 0 0 -1.3125,0.5625 1.3478591,1.3478591 0 0 0 -1.09375,-0.90625 l -2.21875,-0.3125 a 1.3478591,1.3478591 0 0 0 -1.53125,1.125 c -0.0632,-0.069 -0.0569,-0.18576 -0.125,-0.25 -0.73105,-0.69379 -1.70933,-1.06482 -2.78125,-1.21875 -0.66005,-0.0948 -1.32866,-0.10545 -2,0.0312 -0.66441,0.13528 -1.26193,0.41942 -1.78125,0.8125 -0.42138,0.31896 -0.72323,0.74019 -1,1.1875 l 0,-2.65625 A 1.3478591,1.3478591 0 0 0 137.875,128.5 l -2.1875,0 a 1.3478591,1.3478591 0 0 0 -0.125,0 z m 7.84375,6.28125 c 0.007,-0.008 0.0458,-0.004 0.0312,0 -0.11982,-0.22162 -0.0667,-0.15569 -0.0312,0.0625 a 1.3478591,1.3478591 0 0 0 0.21875,0.53125 1.3478591,1.3478591 0 0 0 -0.28125,0.46875 c -0.0718,0.19343 -0.11717,0.22946 -0.15625,0.28125 0.0426,0.0516 -0.0202,-0.11165 0.0625,-0.6875 0.0652,-0.45429 0.1906,-0.61971 0.15625,-0.59375 -0.003,0.003 0.007,-0.0705 0,-0.0625 z m -0.25,1.40625 c -0.004,0.005 -0.0327,0.0636 -0.0312,0.0625 a 1.3478591,1.3478591 0 0 0 -0.0312,0 c 0.0706,-0.0586 0.0994,-0.0544 0.0625,-0.0625 z"
       inkscape:export-filename="/home/arekt/git/linguist/public/images/sujimichi.png"
       inkscape:export-xdpi="416.93457"
       inkscape:export-ydpi="416.93457" />
    <text
       xml:space="preserve"
       style="font-size:10px;font-style:normal;font-variant:normal;font-weight:bold;font-stretch:normal;fill:#00ff00;fill-opacity:1;stroke:none;display:inline;font-family:Arial Black;-inkscape-font-specification:'Arial Black, Bold'"
       x="108.57143"
       y="114.50505"
       id="text9273"
       inkscape:export-filename="/home/arekt/git/linguist/public/images/sujimichi.png"
       inkscape:export-xdpi="416.93457"
       inkscape:export-ydpi="416.93457"><tspan
         sodipodi:role="line"
         id="tspan9275"
         x="108.57143"
         y="114.50505"
         dx="0 -1.0293316e-07 0 0 0 1.4285715 0 0 0.71428567"
         dy="0 -2.1428571 2.1428571 -1.4285715 1.4285715 -1.4285715 1.4285715 0.71428573 -1.4285715"
         rotate="0 351.8288 347.74319 351.8288 0 0 8.1712332 8.1712332 12.25685 0">SUJIMICHI</tspan></text>
    <text
       xml:space="preserve"
       style="font-size:6px;font-style:normal;font-variant:normal;font-weight:bold;font-stretch:normal;fill:#ffffff;fill-opacity:1;stroke:none;font-family:Comic Sans MS;-inkscape-font-specification:Andale Mono Bold"
       x="112.32143"
       y="121.11219"
       id="text9293"
       inkscape:export-xdpi="416.93457"
       inkscape:export-ydpi="416.93457"
       inkscape:export-filename="/home/arekt/git/linguist/public/images/sujimichi.png"><tspan
         sodipodi:role="line"
         id="tspan9295"
         x="112.32143"
         y="121.11219">Logic way to learn</tspan></text>
  </g>
</svg>
